<?xml version="1.0" encoding="utf-8"?><svg xmlns="http://www.w3.org/2000/svg" xmlns:xlink="http://www.w3.org/1999/xlink"><symbol viewBox="0 0 48 48" id="audio" xmlns="http://www.w3.org/2000/svg"><path d="M24 2v44L10 32H2V16h8L24 2Zm15 5.03c4.667 4.666 7.043 10.776 6.958 16.97-.085 6.194-2.291 12.304-6.958 16.97l-3.31-3.309c7.553-7.552 7.553-19.94.086-27.407L39 7.029Zm-8 5.656c3.086 3.086 4.628 7.2 4.628 11.314S34.171 32.142 31 35.314l-3.257-3.429c2.143-2.142 3.343-4.885 3.343-7.97 0-3.086-1.2-5.829-3.343-7.972L31 12.686Z"/></symbol><symbol viewBox="0 0 48 48" id="back" xmlns="http://www.w3.org/2000/svg"><path d="M45 26H10l8 8-3 3L2 24l13-13 3 3-8 8h35z"/></symbol><symbol viewBox="0 0 48 48" id="basket" xmlns="http://www.w3.org/2000/svg"><path d="M44.58 16h-8.22L29.11 5.56c-.39-.56-1.17-.7-1.73-.31l-.83.58c-.56.39-.7 1.17-.31 1.73l5.87 8.45H15.89l5.87-8.45c.39-.56.25-1.34-.31-1.73l-.83-.58c-.56-.39-1.34-.25-1.73.31L11.64 16H3.42c-.77 0-1.4.63-1.4 1.4v1.18c0 .77.63 1.4 1.4 1.4h1.21l3.31 19.1c.25 1.68 1.7 2.92 3.4 2.92h25.28c1.7 0 3.14-1.24 3.4-2.92l3.31-19.1h1.25c.77 0 1.4-.63 1.4-1.4V17.4c0-.77-.63-1.4-1.4-1.4ZM17.63 36.87l-.69.12c-.63.11-1.22-.31-1.33-.93l-2.05-11.52c-.11-.63.31-1.22.93-1.33l.69-.12c.63-.11 1.22.31 1.33.93l2.05 11.52c.11.63-.31 1.22-.93 1.33Zm7.84-1.02c0 .64-.51 1.15-1.15 1.15h-.7c-.64 0-1.15-.51-1.15-1.15v-11.7c0-.64.51-1.15 1.15-1.15h.7c.64 0 1.15.51 1.15 1.15v11.7Zm6.92.21c-.11.63-.71 1.05-1.34.93l-.68-.12c-.63-.11-1.05-.71-.93-1.34l2.05-11.51c.11-.63.71-1.05 1.34-.93l.68.12c.63.11 1.05.71.93 1.34l-2.05 11.51Z"/></symbol><symbol viewBox="0 0 48 48" id="book" xmlns="http://www.w3.org/2000/svg"><path d="M0 0h48v48H0z" style="fill:none"/><path d="M41.89 2H9.96C7.7 2 6 3.59 6 6v36c0 2.54 1.85 4 4 4h28V8H12c-2 0-4 0-4-2s2-2 4-2h28v34h2l-.11-36Z" style="fill-rule:evenodd"/></symbol><symbol viewBox="0 0 48 48" id="brochure" xmlns="http://www.w3.org/2000/svg"><path d="M37 8V2H7v38c2.762-.016 4.43-.016 5 0v6h28V8h-3ZM12 38H8.989L9 4h19L12 7v31ZM35 4v4H14l21-4Zm3 40H14V10h24v34Z"/><path d="M35 16H17v2h18zM35 21H17v2h18zM35 26H17v2h18zM30 31H17v2h13z"/></symbol><symbol viewBox="0 0 48 48" id="budget" xmlns="http://www.w3.org/2000/svg"><path d="M30 14c8.833 0 16-2.69 16-6s-7.167-6-16-6-16 2.69-16 6 7.167 6 16 6Zm8 8c4.48-.928 8-1.912 8-4v-4c-2.651 2.157-7.206 3.317-12 3.592 2.203 1.23 3.343 2.371 4 4.408Zm-20 8c7 0 16-2.488 16-7 0-4.512-8-7-16-7S2 18.488 2 23c0 4.512 9 7 16 7Zm20 0c4.775-.905 8-2.067 8-4v-4c-1 2-6 4-8 4v4Zm-20 8c8.833 0 16-2.946 16-6v-4c-3.442 2.941-9.742 4.464-16 4.464-6.258 0-12.558-1.523-16-4.464v4c0 3.054 7.167 6 16 6Zm0 8c8.833 0 16-2.69 16-5.998V36c-3.442 2.727-9.733 4.002-16 4.002-6.267 0-12.558-1.275-16-4.002v4.002C2 43.31 9.167 46 18 46Z"/></symbol><symbol viewBox="0 0 48 48" id="calendar" xmlns="http://www.w3.org/2000/svg"><defs><style>.cls-1{fill:none}</style></defs><path id="agLayer_1" d="M10 8V2h6v6c0 1.65-1.16 3-3 3s-3-1.23-3-3Zm22 0V2h6v6c0 1.81-1.34 3-3 3s-3-1.19-3-3Zm10 34h-6v-6h6v6Zm0-8h-6v-6h6v6Zm0-8h-6v-6h6v6ZM32 42h-6v-6h6v6Zm0-8h-6v-6h6v6Zm0-8h-6v-6h6v6ZM22 42h-6v-6h6v6Zm0-8h-6v-6h6v6Zm0-8h-6v-6h6v6ZM12 42H6v-6h6v6Zm0-8H6v-6h6v6Zm0-8H6v-6h6v6Zm32-8H4v26h40V18ZM2 46V6h6v2c0 2.51 2.2 5 5 5s5-2.49 5-5V6h12v2c0 2.51 2.2 5 5 5s5-2.49 5-5V6h6v40H2Z" style="fill-rule:evenodd"/></symbol><symbol viewBox="0 0 48 48" id="check" xmlns="http://www.w3.org/2000/svg"><defs><style>.cls-1{fill:none}</style></defs><path id="aiLayer_1" d="m20 28 16-16 4 4-20 20L8 24l4-4 8 8Z" style="fill-rule:evenodd"/></symbol><symbol viewBox="0 0 48 48" id="check-filled" xmlns="http://www.w3.org/2000/svg"><path d="M24 2c12.198 0 22 9.81 22 22s-9.81 22-22 22S2 36.19 2 24 11.81 2 24 2Zm9.25 14-11 10.667-5.5-5.334L14 24l8 8 14-13.333L33.25 16Z"/></symbol><symbol viewBox="0 0 48 48" id="close" xmlns="http://www.w3.org/2000/svg"><path d="M0 0h48v48H0z" style="fill:none"/><path d="m26.7 24 5.3 5.32L29.31 32l-5.3-5.32-5.32 5.29L16 29.29 21.32 24 16 18.71l2.69-2.68 5.46 5.26L29.31 16 32 18.68 26.7 24Zm4.31-16.58c2.12.89 4.05 2.19 5.72 3.85a17.75 17.75 0 0 1 3.85 5.72C41.52 19.21 42 21.57 42 24s-.48 4.79-1.42 7.01a17.82 17.82 0 0 1-3.85 5.71 17.858 17.858 0 0 1-5.72 3.85c-2.22.94-4.58 1.42-7.01 1.42s-4.8-.48-7.01-1.42a17.97 17.97 0 0 1-5.72-3.85 17.926 17.926 0 0 1-3.85-5.71C6.48 28.79 6 26.43 6 24s.48-4.79 1.42-7.01c.89-2.13 2.19-4.05 3.85-5.72s3.58-2.95 5.72-3.85C19.21 6.48 21.57 6 24 6s4.79.48 7.01 1.42Zm1.56-3.68c2.6 1.09 4.95 2.68 6.99 4.71 2.02 2.02 3.61 4.36 4.71 6.98 1.15 2.71 1.74 5.59 1.74 8.57s-.59 5.86-1.74 8.57a21.73 21.73 0 0 1-4.71 6.98 21.878 21.878 0 0 1-6.99 4.71c-2.71 1.15-5.59 1.73-8.57 1.73s-5.86-.59-8.57-1.73a21.73 21.73 0 0 1-6.98-4.71 21.946 21.946 0 0 1-4.71-6.98C2.59 29.86 2.01 26.98 2.01 24s.59-5.86 1.73-8.57a21.73 21.73 0 0 1 4.71-6.98c2.02-2.02 4.38-3.61 6.98-4.71C18.14 2.59 21.02 2 24 2s5.86.59 8.57 1.74Z" style="fill-rule:evenodd"/></symbol><symbol viewBox="0 0 48 48" id="close-filled" xmlns="http://www.w3.org/2000/svg"><defs><style>.cls-1{fill:none}</style></defs><path id="ajLayer_1" d="m26.7 24 5.3 5.32L29.31 32l-5.3-5.32-5.32 5.29L16 29.29 21.32 24 16 18.71l2.69-2.68 5.46 5.26L29.31 16 32 18.68 26.7 24Zm5.87-20.26c2.6 1.09 4.95 2.68 6.99 4.71 2.02 2.02 3.61 4.36 4.71 6.98 1.15 2.71 1.74 5.59 1.74 8.57s-.59 5.86-1.74 8.57a21.73 21.73 0 0 1-4.71 6.98 21.878 21.878 0 0 1-6.99 4.71c-2.71 1.15-5.59 1.73-8.57 1.73s-5.86-.59-8.57-1.73a21.73 21.73 0 0 1-6.98-4.71 21.946 21.946 0 0 1-4.71-6.98C2.59 29.86 2.01 26.98 2.01 24s.59-5.86 1.73-8.57a21.73 21.73 0 0 1 4.71-6.98c2.02-2.02 4.38-3.61 6.98-4.71C18.14 2.59 21.02 2 24 2s5.86.59 8.57 1.74Z" style="fill-rule:evenodd"/></symbol><symbol viewBox="0 0 48 48" id="copy" xmlns="http://www.w3.org/2000/svg"><path d="M13 37.99H5v-36h28V8h-4V5.99H9v28h4v4z"/><path d="M15 9.99v36h28v-27l-9-9H15ZM19 14h11.96v8H39v20H19V14Z" style="fill-rule:evenodd"/></symbol><symbol viewBox="0 0 48 48" id="corner-arrow" xmlns="http://www.w3.org/2000/svg"><path d="M0 0h48v48H0z" style="fill:none"/><path d="M40 39 24 21 8 39l-6-6L24 9l22 24-6 6Z" style="fill-rule:evenodd"/></symbol><symbol viewBox="0 0 48 48" id="data" xmlns="http://www.w3.org/2000/svg"><path d="M0 0h48v48H0z" style="fill:none"/><path d="M24 18c-10.56 0-16-4.21-16-6s5.44-6 16-6 16 4.21 16 6-5.44 6-16 6Zm16 6c0 2.13-5.44 6-16 6S8 26.13 8 24v-6c3.73 2.25 9.51 3.71 16 4 6.49-.29 12.27-1.75 16-4v6Zm0 12c0 2.13-5.44 6-16 6S8 38.13 8 36v-6c3.73 2.25 9.51 3.71 16 4 6.49-.29 12.27-1.75 16-4v6ZM24 2C12.97 2 4 6.32 4 12v24c0 5.68 8.97 10 20 10s20-4.32 20-10V12c0-5.68-8.97-10-20-10Z" style="fill-rule:evenodd"/></symbol><symbol viewBox="0 0 48 48" id="digital" xmlns="http://www.w3.org/2000/svg"><path d="M40 28h-6v-8h-8v6h-6v8h8v6H14V26H2V2h24v12h8V8h6v6h6v20h-6v-6ZM8 8v12h12V8H8Zm32-6h6v6h-6V2ZM28 28h6v6h-6v-6ZM2 34h6v6H2v-6Zm6 6h6v6H8v-6Zm32 0h6v6h-6v-6Zm-12 0h6v6h-6v-6ZM10 10h8v8h-8v-8Z"/></symbol><symbol viewBox="0 0 48 48" id="download" xmlns="http://www.w3.org/2000/svg"><path d="M6 24v18h36V24h4v22H2V24h4ZM26 2v24l8-8 3 3-13 13-13-13 3-3 8 8V2h4Z"/></symbol><symbol viewBox="0 0 48 48" id="edit" xmlns="http://www.w3.org/2000/svg"><path d="m46 10-8-8-19 19-4 12 12-4 19-19z" style="fill-rule:evenodd"/><path d="M29 6H6v36h36V19l4-4v31H2l.01-44H33l-4 4z"/></symbol><symbol viewBox="0 0 48 48" id="email" xmlns="http://www.w3.org/2000/svg"><path d="M0 0h48v48H0z" style="fill:none"/><path d="M4 11v26h40V11H4Zm37 2L24 24 7 13h34ZM24 25.69 6 14v21h36V14L24 25.69Z" style="fill-rule:evenodd"/></symbol><symbol viewBox="0 0 48 48" id="energy" xmlns="http://www.w3.org/2000/svg"><path d="M0 0h48v48H0z" style="fill:none"/><path d="M33.34 4.45c.03-.73-.14-2.23-1.06-2.62-.92-.39-2.14.55-2.62 1.06-2.63 2.75-5.33 8.01-7.31 12.11 2.62-1.06 6.3.5 7.36 3.13.08-.22.16-.45.24-.68 1.56-4.41 3.25-9.2 3.39-12.99Zm-6.3 19.85c1.93-3.13-.78-6.65-3.96-6.17-1.34.2-2.27.91-2.81 1.78-.03.05-.67 1.58-.58 2.62.38 4.38 5.72 4.4 7.34 1.78Zm-7.35 21.97h8l-2-12-4-4-2 16ZM1.74 23.59c-.07-1 1.2-1.83 1.86-2.13 3.44-1.6 8.48-2.27 13.11-2.88l.71-.09c-1.86 2.13-1.58 6.12.56 7.98-4.55.09-10.46.07-14.11-1.02-.67-.2-2.06-.86-2.13-1.86Zm32.39 15.66c.62.39 2 1 2.8.39.8-.6.59-2.13.39-2.8-1.07-3.65-4.27-8.62-6.83-12.38-.39 2.8-3.59 5.21-6.39 4.81.15.18.31.36.47.55 3.04 3.55 6.34 7.42 9.56 9.43Z" style="fill-rule:evenodd"/></symbol><symbol viewBox="0 0 48 48" id="error" xmlns="http://www.w3.org/2000/svg"><path d="m34 2 12 12v20L34 46H14L2 34V14L14 2h20Zm-4.69 14-5.161 5.288-5.46-5.261L16 18.712 21.324 24 16 29.288l2.69 2.685 5.324-5.288L29.31 32 32 29.315 26.703 24 32 18.685 29.31 16Z"/></symbol><symbol viewBox="0 0 48 48" id="euro" xmlns="http://www.w3.org/2000/svg"><path d="M24 2A22 22 0 0 0 2 24a22 22 0 0 0 22 22 22 22 0 0 0 22-22A22 22 0 0 0 24 2zm1.773 12c1.624 0 3.035.464 4.227 1l-.852 3.455c-.819-.748-2.011-1.113-3.591-1.113C23.98 17.342 21 18 20 21h9l-1 2h-8a40.795 40.795 0 0 0 0 2h8l-1 2h-7c1 3 3.92 3.656 5.467 3.656 1.855 0 3.435-.624 4.533-1.656v4c-1.254.562-2.816 1-4.49 1-2.816 0-5.702-1.237-7.51-3-1.24-1.197-1.598-2.21-2-4h-2l1-2h1a45.931 45.931 0 0 1 0-2h-2l1-2h1c.402-1.75 1.389-3.163 2.596-4.334C20.422 14.89 22.802 14 25.773 14z"/></symbol><symbol viewBox="0 0 48 48" id="external" xmlns="http://www.w3.org/2000/svg"><path d="M14 2v4H6v36h36v-8h4v12H2V2h12Zm32 0v20h-4V8.667l-.201.404-16.97 16.97L22 23.214l16.97-16.97.484-.243H26V2h20Z"/></symbol><symbol viewBox="0 0 48 48" id="external-events" xmlns="http://www.w3.org/2000/svg"><path d="M21.548 41H4.952V18h37.096v7H44V7h-5.858v1.8c0 2.26-2.394 4.2-4.88 4.2-2.488 0-4.892-1.937-4.892-4.2V7h-9.752v1.8c0 2.26-2.394 4.2-4.88 4.2-2.488 0-4.892-1.937-4.892-4.2V7H3v36h18.548v-2Z"/><path d="M11 8.334V3h6v5.334C17 9.8 15.84 11 14 11s-3-1.097-3-2.666ZM30 8.334V3h6v5.334C36 9.944 34.657 11 32.997 11 31.337 11 30 9.944 30 8.334ZM44 40v6H25V27h6v2h-4v15h15v-4z"/><path d="M44 27v8h-2.036L42 30.5 35.5 37 34 35.5l6.5-6.5H36v-2zM22 34h-5v5h5zM22 27h-5v5h5zM13 34H8v5h5zM13 27H8v5h5zM39 20h-5v5h5zM30 20h-5v5h5zM22 20h-5v5h5zM13 20H8v5h5z"/></symbol><symbol viewBox="0 0 48 48" id="faq" xmlns="http://www.w3.org/2000/svg"><path d="M0 0h48v48H0z" style="fill:none"/><path d="M20 31c0-3.46 1.24-4.41 1.8-5.55.56-1.14 1.92-2.31 3.61-3.7 1.72-1.39 2.76-2.34 3.07-2.75.53-.7.65-1.45.65-2.28 0-2.91-2.93-4.36-4.4-4.36s-5.87 0-6.34 5.38l-5.39-.7c.16-2.5 1.22-4.65 3.2-6.39 1.97-1.77 4.54-2.66 7.77-2.66s6.05.89 8.02 2.69C34 12.45 35 14.51 35 16.88c0 1.3-.38 2.53-1.1 3.7-.75 1.17-2.32 2.75-4.7 4.77-1.25 1.04-2.01 1.87-2.32 2.5-.28.63-.88 1.42-.88 3.14h-6Zm0 9v-6h6v6h-6Z" style="fill-rule:evenodd"/></symbol><symbol viewBox="0 0 48 48" id="feedback" xmlns="http://www.w3.org/2000/svg"><path d="M23 2c11.598 0 21 9.402 21 21 0 4.365-1.332 8.419-3.611 11.778L46 46l-12.784-4.648A20.905 20.905 0 0 1 23 44C11.402 44 2 34.598 2 23S11.402 2 23 2Z"/></symbol><symbol viewBox="0 0 48 48" id="file" xmlns="http://www.w3.org/2000/svg"><path d="M7 2v44h34V13L30 2H7Zm4 4h16v10h10v26H11V6Z" style="fill-rule:evenodd"/></symbol><symbol viewBox="0 0 48 48" id="fullscreen" xmlns="http://www.w3.org/2000/svg"><path d="M8 30v10h10v4H4V30h4Zm36 0v14H30v-4h10V30h4ZM18 4v4H8v10H4V4h14Zm26 0v14h-4V8H30V4h14Z"/></symbol><symbol viewBox="0 0 48 48" id="gear" xmlns="http://www.w3.org/2000/svg"><path d="m26 2 2 5.998 4.485 1.86 5.657-2.829 2.829 2.829-2.829 5.657L40 20l6 1.384v5.007L40 28l-1.858 4.485 3.264 5.222-3.54 3.54-5.38-3.105L28 40l-2 6h-4l-2-6-4.485-1.858-5.657 2.829-2.829-2.829 2.829-5.657L7.998 28 2 26v-4l6-2 1.858-4.485-2.829-5.657 2.829-2.829 5.657 2.829L20 7.998 22 2h4Zm-1.987 14C19.589 16 16 19.582 16 23.998 16 28.412 19.589 32 24.013 32 28.437 32 32 28.41 32 23.998A7.983 7.983 0 0 0 24.013 16Z"/></symbol><symbol viewBox="0 0 48 48" id="generic-lang" xmlns="http://www.w3.org/2000/svg"><path d="M0 0h48v48H0z" style="fill:none"/><path d="M33.95 24.66c.61-1.31.98-2.71 1.07-4.2h-4.15c-.05 1.54-.28 2.94-.61 4.2h3.69Zm1.12-5.88c-.09-1.49-.47-2.89-1.07-4.2h-3.73c.33 1.26.56 2.66.65 4.2h4.15ZM24.2 26.33v4.8c.75-.56 2.47-2.05 3.68-4.8H24.2Zm5.46 0c-.75 1.86-1.73 3.36-2.61 4.38 2.42-.84 4.48-2.33 5.92-4.38h-3.31Zm3.36-13.43c-1.4-2.05-3.45-3.59-5.83-4.43.84 1.07 1.82 2.52 2.56 4.43h3.27Zm-4.48 1.68H24.2v4.2h5.04c-.09-1.59-.33-2.98-.7-4.2Zm-4.34 5.88v4.2h4.34c.37-1.21.61-2.61.65-4.2H24.2Zm3.68-7.6c-.37-1.03-.93-1.86-1.4-2.56-.7-.93-1.4-1.59-1.91-2.01-.09-.14-.23-.19-.37-.28v4.85h3.68Zm-9.05 0h3.73v-4.8c-.79.56-2.52 2.1-3.73 4.8Zm-1.77 0c.7-1.86 1.73-3.36 2.61-4.38-2.42.79-4.48 2.38-5.92 4.38h3.31Zm-1.26 7.55h-4.15c.09 1.49.47 2.94 1.07 4.2h3.68c-.33-1.26-.51-2.61-.61-4.2Zm.65-5.88h-3.68c-.61 1.31-.98 2.71-1.12 4.2h4.2c.09-1.54.28-2.94.61-4.2ZM2 32c0 2.38 1.96 4 4 4h12l16 10V36h8c2.19 0 4-1.78 4-4V6c0-2.11-1.9-4-4-4H6.18C4.07 2 2 4.07 2 6.18V32Zm7.98-12.43c0-7.42 6.02-13.43 13.43-13.38 7.42 0 13.38 6.02 13.34 13.43 0 7.42-6.02 13.43-13.43 13.38-7.42 0-13.38-6.02-13.34-13.43Zm3.73 6.72c1.45 2.05 3.5 3.59 5.88 4.43-.89-1.07-1.87-2.52-2.56-4.43h-3.31Zm4.52-1.68h4.29v-4.2h-4.99c.05 1.59.28 2.98.7 4.2Zm4.29-5.88v-4.2h-4.34c-.37 1.21-.56 2.61-.65 4.2h4.99Zm-2.29 10.12c.7.89 1.4 1.59 1.91 2.01.09.14.23.23.33.28v-4.8h-3.68c.42.98.98 1.82 1.45 2.52Z" style="fill-rule:evenodd"/></symbol><symbol viewBox="0 0 48 48" id="global" xmlns="http://www.w3.org/2000/svg"><path d="M2 24c0 12.144 9.834 22 21.978 22C36.144 46 46 36.144 46 24S36.144 2 23.978 2C11.834 2 2 11.856 2 24Zm38-8h-7c-.704-2.75-1.982-6.19-3.302-8.632C33.746 8.754 40 16 40 16ZM24 6c1.826 2.64 4 7 4 10h-8c0-3 4-10 4-10ZM6.4 24c0-1.518.22-2.992.572-4.4h7.436c-.176 1.452-.308 2.904-.308 4.4 0 1.496.132 2.948.308 4.4H6.972C6.62 26.992 6.4 25.518 6.4 24ZM8 32h7c.704 2.75 1.982 6.19 3.302 8.632C14.254 39.246 8 32 8 32Zm7-16H8c2.112-3.652 6.254-7.246 10.302-8.632C16.982 9.81 15 16 15 16Zm9 26c-1.826-2.64-4-7-4-10h8c0 3-4 10-4 10Zm-5.148-13.6c-.198-1.452-.352-2.904-.352-4.4 0-1.496.154-2.97.352-4.4h10.296c.198 1.43.352 2.904.352 4.4 0 1.496-.154 2.948-.352 4.4H18.852ZM33 32h7c-2.112 3.63-6.254 7.246-10.302 8.632C31.018 38.19 32.296 34.75 33 32Zm.9-8c0-1.496-.132-2.948-.308-4.4h7.436c.352 1.408.572 2.882.572 4.4 0 1.518-.22 2.992-.572 4.4h-7.436c.176-1.452.308-2.904.308-4.4Z"/></symbol><symbol viewBox="0 0 48 48" id="growth" xmlns="http://www.w3.org/2000/svg"><path d="M0 0h48v48H0z" style="fill:none"/><path d="M46 16V2H32v4h7.17l-13.3 13.3-6.88-6.23-.96.95h-.02L2 30l2.91 3.03 14.2-14.3L26 24.76l1.61-1.56.52-.51.71-.69h-.01L41.99 8.83V16h4ZM2 36v10h8V36H2Zm12-6v16h8V30h-8Zm20-4h-7.95L26 46h7.95L34 26Zm4-4v24h8V22h-8Z" style="fill-rule:evenodd"/></symbol><symbol viewBox="0 0 48 48" id="hamburger" xmlns="http://www.w3.org/2000/svg"><path d="M0 0h48v48H0z" style="fill:none"/><path d="M44 8.5H4v5h40v-5Zm-40 13h40v5H4v-5Zm0 13h40v5H4v-5Z" style="fill-rule:evenodd"/></symbol><symbol viewBox="0 0 48 48" id="image" xmlns="http://www.w3.org/2000/svg"><path d="M0 0h48v48H0z" style="fill:none"/><path d="M42 38H6V10h36v28Zm4-32H2v36h44V6Zm-12 8c2.24 0 4 1.76 4 4s-1.76 4-4 4-4-1.92-4-4c0-2.4 1.76-4 4-4Zm4 20H10v-4l8-14 12 14 8-6v10Z" style="fill-rule:evenodd"/></symbol><symbol viewBox="0 0 48 48" id="infographic" xmlns="http://www.w3.org/2000/svg"><path d="M6.249 27C7.514 34.539 13.463 40.488 21 41.752v4.046C11.25 44.468 3.533 36.75 2.204 27h4.046ZM34.43 38.673l2.861 2.86a21.89 21.89 0 0 1-10.29 4.265v-4.046a17.897 17.897 0 0 0 7.043-2.811l.386-.268ZM45.797 27a21.89 21.89 0 0 1-4.264 10.29l-2.86-2.86A17.904 17.904 0 0 0 41.75 27h4.046ZM17 26v7h-4v-7h4Zm9-13v20h-4V13h4Zm9 7v13h-4V20h4ZM21 2.203v4.046C13.463 7.513 7.513 13.462 6.25 20.999H2.203C3.533 11.25 11.25 3.533 21 2.204Zm6 0C36.75 3.533 44.468 11.25 45.797 21h-4.046c-1.264-7.537-7.213-13.486-14.75-14.751V2.203Z"/></symbol><symbol viewBox="0 0 48 48" id="information" xmlns="http://www.w3.org/2000/svg"><path d="M24 2.01c12.072 0 22 9.81 22 22s-9.81 22-22 22-22-9.81-22-22 9.81-22 22-22ZM28 20H18v4h4v10h-4v4h14v-4h-4V20Zm0-10h-6v6h6v-6Z"/></symbol><symbol viewBox="0 0 48 48" id="laco" xmlns="http://www.w3.org/2000/svg"><path d="M44 13v22H10v-5.82l-.58-.59L4.83 24l4.6-4.61.58-.59V13H44m2-2H8.01v6.98L2 24l6 6.01V37h38V11Z"/><circle cx="36.5" cy="24" r="3.5"/><circle cx="26.5" cy="24" r="3.5"/><circle cx="16.5" cy="24" r="3.5"/></symbol><symbol viewBox="0 0 48 48" id="laco-filled" xmlns="http://www.w3.org/2000/svg"><path d="M8.01 11v6.98L2 24l6 6.01V37h38V11H8.01Zm8.49 16.5c-1.93 0-3.5-1.57-3.5-3.5s1.57-3.5 3.5-3.5S20 22.07 20 24s-1.57 3.5-3.5 3.5Zm10 0c-1.93 0-3.5-1.57-3.5-3.5s1.57-3.5 3.5-3.5S30 22.07 30 24s-1.57 3.5-3.5 3.5Zm10 0c-1.93 0-3.5-1.57-3.5-3.5s1.57-3.5 3.5-3.5S40 22.07 40 24s-1.57 3.5-3.5 3.5Z"/></symbol><symbol viewBox="0 0 48 48" id="language" xmlns="http://www.w3.org/2000/svg"><defs><mask width="44" height="44" x="2" y="2" maskUnits="userSpaceOnUse"/></defs><path d="M0 0h48v48H0z" style="fill:none"/><path d="M7 2C3.13 2 2 3.04 2 7v26c0 3.96 1.11 4.95 5 5h6v8l17-8h10c4.11 0 6-1.06 6-5V7c0-3.99-1-5-6-5H7Z" style="fill-rule:evenodd"/></symbol><symbol viewBox="0 0 48 48" id="list" xmlns="http://www.w3.org/2000/svg"><path d="M3 3h6v5.012H3Zm12 0h30v5.012H15ZM3 15.371h6v5.008H3Zm12 0h30v5.008H15ZM3 27.738h6v5.012H3Zm12 0h30v5.012H15ZM3 40.11h6v5.012H3Zm12 0h30v5.012H15Zm0 0"/></symbol><symbol viewBox="0 0 48 48" id="livestreaming" xmlns="http://www.w3.org/2000/svg"><path d="M0 0h48v48H0z" style="fill:none"/><path d="M2 6v10h4v-6h36v28H28v4h18V6H2Zm0 30v6h6c0-3.4-2.6-6-6-6Zm0-8v4c5.6 0 10 4.4 10 10h4c0-7.8-6.2-14-14-14Zm0-8v4c10 0 18 8 18 18h4c0-12.2-9.8-22-22-22Z" style="fill-rule:evenodd"/></symbol><symbol viewBox="0 0 48 48" id="location" xmlns="http://www.w3.org/2000/svg"><path d="M0 0h48v48H0z" style="fill:none"/><path d="M10 16c0-8.03 6.28-14 14-14s14 5.97 14 14c0 3.23-1.92 8.39-6 16-2.89 5.38-8 14-8 14s-5.11-8.62-8-14c-4.08-7.61-6-12.77-6-16Zm14 6c3.31 0 6-2.69 6-6s-2.69-6-6-6-6 2.69-6 6 2.69 6 6 6Z" style="fill-rule:evenodd"/></symbol><symbol viewBox="0 0 48 48" id="log-in" xmlns="http://www.w3.org/2000/svg"><path d="M23.978 2C36.144 2 46 11.856 46 24c0 7.74-4.004 14.551-10.059 18.473-.46-3.65-3.583-6.473-7.368-6.473h-9.146l-.245.004c-3.679.119-6.681 2.905-7.125 6.482C6.004 38.566 2 31.75 2 24 2 11.856 11.834 2 23.978 2ZM24 15a9 9 0 0 0-9 9c0 4.972 4.03 9 9 9s9-4.028 9-9a9 9 0 0 0-9-9Z"/></symbol><symbol viewBox="0 0 48 48" id="logged-in" xmlns="http://www.w3.org/2000/svg"><path d="M45.241 26.036a2.503 2.503 0 0 1-.02 3.61L29.258 45l-8.192-7.965a2.503 2.503 0 0 1 0-3.61 2.678 2.678 0 0 1 3.713 0l4.5 4.374 12.25-11.783a2.678 2.678 0 0 1 3.712.02ZM18.983 3C28.384 3 36 10.616 36 20c0 5.662-2.773 10.68-7.038 13.771-.324-2.612-2.689-4.658-5.598-4.766L23.12 29h-7.24l-.231.004c-3.062.108-5.523 2.361-5.644 5.165l-.005.217v.044C5.195 31.426 2 26.085 2 20 2 10.616 9.599 3 18.983 3Zm.517 11a6.5 6.5 0 1 0 0 13 6.5 6.5 0 0 0 0-13Z"/></symbol><symbol viewBox="0 0 48 48" id="minus" xmlns="http://www.w3.org/2000/svg"><path d="M8 26v-4h32v4z"/></symbol><symbol viewBox="0 0 48 48" id="multiple-files" xmlns="http://www.w3.org/2000/svg"><path d="M6 38H2l.01-36h28.96v6.02h-4V6H6v32z"/><path d="M18 9.99v36h28v-27l-9-9H18ZM22 14h11.96v8H42v20H22V14Z" style="fill-rule:evenodd"/><path d="M10.02 10.03h4v32h-4z"/></symbol><symbol viewBox="0 0 48 48" id="organigram" xmlns="http://www.w3.org/2000/svg"><path d="M0 0h48v48H0z" style="fill:none"/><path d="M2 46V35h12v11H2Zm32 0V35h12v11H34ZM11 28v3H7v-6.93L22 24v-6h4v6l15 .07V31h-4v-3H11Zm3-14V2h20v12H14Z" style="fill-rule:evenodd"/></symbol><symbol viewBox="0 0 48 48" id="package" xmlns="http://www.w3.org/2000/svg"><path d="M0 0h48v48H0z" style="fill:none"/><path d="M4 20h40v26H4V20Zm12 10h16v-6H16v6Zm30-12v-6L40 2H8L2 12v6h44Z" style="fill-rule:evenodd"/></symbol><symbol viewBox="0 0 48 48" id="pause" xmlns="http://www.w3.org/2000/svg"><path fill-rule="evenodd" d="M31.011 7.42a17.808 17.808 0 0 1 5.715 3.854 17.817 17.817 0 0 1 3.854 5.715A17.877 17.877 0 0 1 42 24c0 2.435-.48 4.793-1.42 7.013a17.86 17.86 0 0 1-3.854 5.715A17.945 17.945 0 0 1 24 42c-2.435 0-4.795-.479-7.013-1.418a17.84 17.84 0 0 1-5.715-3.854 17.933 17.933 0 0 1-3.854-5.715A17.886 17.886 0 0 1 6 24c0-2.434.479-4.793 1.418-7.011a17.817 17.817 0 0 1 3.854-5.715 17.932 17.932 0 0 1 5.715-3.854A17.85 17.85 0 0 1 24 6c2.434 0 4.793.479 7.011 1.42Zm1.558-3.684a21.764 21.764 0 0 1 6.985 4.71 21.772 21.772 0 0 1 4.71 6.985A21.85 21.85 0 0 1 46 24.001c0 2.976-.587 5.858-1.736 8.57a21.826 21.826 0 0 1-4.71 6.985 21.926 21.926 0 0 1-6.985 4.71A21.848 21.848 0 0 1 24 46c-2.977 0-5.86-.585-8.571-1.734a21.796 21.796 0 0 1-6.985-4.71 21.917 21.917 0 0 1-4.71-6.985A21.862 21.862 0 0 1 2 24.001c0-2.975.585-5.86 1.734-8.57a21.776 21.776 0 0 1 4.71-6.985 21.916 21.916 0 0 1 6.985-4.71A21.815 21.815 0 0 1 24 2c2.974 0 5.859.585 8.569 1.736ZM18 15h4v18h-4V15Zm12 0h-4v18h4V15Z"/></symbol><symbol viewBox="0 0 48 48" id="pause-filled" xmlns="http://www.w3.org/2000/svg"><path fill-rule="evenodd" d="M39.554 8.446a21.767 21.767 0 0 0-6.985-4.71A21.812 21.812 0 0 0 24 2c-2.977 0-5.86.585-8.571 1.736a21.917 21.917 0 0 0-6.985 4.71 21.776 21.776 0 0 0-4.71 6.985A21.85 21.85 0 0 0 2 24c0 2.977.585 5.859 1.734 8.571a21.92 21.92 0 0 0 4.71 6.985 21.797 21.797 0 0 0 6.985 4.71A21.853 21.853 0 0 0 24 46a21.85 21.85 0 0 0 8.569-1.734 21.93 21.93 0 0 0 6.985-4.71 21.826 21.826 0 0 0 4.71-6.985A21.86 21.86 0 0 0 46 24a21.85 21.85 0 0 0-1.736-8.569 21.773 21.773 0 0 0-4.71-6.985ZM17.89 14.222h3.667v18.334h-3.667V14.222Zm12.222 0h-3.667v18.334h3.667V14.222Z"/></symbol><symbol viewBox="0 0 48 48" id="play" xmlns="http://www.w3.org/2000/svg"><g fill-rule="evenodd"><path d="M31.011 7.42a17.808 17.808 0 0 1 5.715 3.854 17.817 17.817 0 0 1 3.854 5.715A17.877 17.877 0 0 1 42 24c0 2.435-.48 4.793-1.42 7.013a17.86 17.86 0 0 1-3.854 5.715A17.945 17.945 0 0 1 24 42c-2.435 0-4.795-.479-7.013-1.418a17.84 17.84 0 0 1-5.715-3.854 17.933 17.933 0 0 1-3.854-5.715A17.886 17.886 0 0 1 6 24c0-2.434.479-4.793 1.418-7.011a17.817 17.817 0 0 1 3.854-5.715 17.932 17.932 0 0 1 5.715-3.854A17.85 17.85 0 0 1 24 6c2.434 0 4.793.479 7.011 1.42Zm1.558-3.684a21.764 21.764 0 0 1 6.985 4.71 21.772 21.772 0 0 1 4.71 6.985A21.85 21.85 0 0 1 46 24.001c0 2.976-.587 5.858-1.736 8.57a21.826 21.826 0 0 1-4.71 6.985 21.926 21.926 0 0 1-6.985 4.71A21.848 21.848 0 0 1 24 46c-2.977 0-5.86-.585-8.571-1.734a21.796 21.796 0 0 1-6.985-4.71 21.917 21.917 0 0 1-4.71-6.985A21.862 21.862 0 0 1 2 24.001c0-2.975.585-5.86 1.734-8.57a21.776 21.776 0 0 1 4.71-6.985 21.916 21.916 0 0 1 6.985-4.71A21.815 21.815 0 0 1 24 2c2.974 0 5.859.585 8.569 1.736Z"/><path d="M36.726 11.274a17.808 17.808 0 0 0-5.715-3.854A17.847 17.847 0 0 0 24.001 6a17.85 17.85 0 0 0-7.014 1.42c-2.133.902-4.06 2.2-5.715 3.854a17.817 17.817 0 0 0-3.854 5.715A17.877 17.877 0 0 0 6 24c0 2.435.479 4.793 1.418 7.013.902 2.133 2.2 4.06 3.854 5.715a17.84 17.84 0 0 0 5.715 3.854A17.878 17.878 0 0 0 24 42a17.945 17.945 0 0 0 12.726-5.272 17.86 17.86 0 0 0 3.854-5.715C41.52 28.793 42 26.435 42 24c0-2.434-.48-4.793-1.42-7.011a17.817 17.817 0 0 0-3.854-5.715Zm2.828-2.828a21.764 21.764 0 0 0-6.985-4.71A21.812 21.812 0 0 0 24 2c-2.977 0-5.86.585-8.571 1.736a21.916 21.916 0 0 0-6.985 4.71 21.776 21.776 0 0 0-4.71 6.985A21.85 21.85 0 0 0 2 24.001c0 2.976.585 5.858 1.734 8.57a21.917 21.917 0 0 0 4.71 6.985 21.796 21.796 0 0 0 6.985 4.71A21.852 21.852 0 0 0 24 46c2.974 0 5.859-.585 8.569-1.734a21.926 21.926 0 0 0 6.985-4.71 21.826 21.826 0 0 0 4.71-6.985A21.863 21.863 0 0 0 46 24.001a21.85 21.85 0 0 0-1.736-8.57 21.772 21.772 0 0 0-4.71-6.985Z"/><path d="M18 33V15l16 9z"/></g></symbol><symbol viewBox="0 0 48 48" id="play-filled" xmlns="http://www.w3.org/2000/svg"><path d="M39.554 8.446a21.764 21.764 0 0 0-6.985-4.71A21.813 21.813 0 0 0 24 2c-2.977 0-5.86.585-8.571 1.736a21.917 21.917 0 0 0-6.985 4.71 21.776 21.776 0 0 0-4.71 6.985A21.85 21.85 0 0 0 2 24c0 2.977.585 5.859 1.734 8.571a21.917 21.917 0 0 0 4.71 6.985 21.8 21.8 0 0 0 6.985 4.71A21.852 21.852 0 0 0 24 46a21.85 21.85 0 0 0 8.569-1.734 21.929 21.929 0 0 0 6.985-4.71 21.824 21.824 0 0 0 4.71-6.985A21.862 21.862 0 0 0 46 24c0-2.974-.587-5.859-1.736-8.569a21.772 21.772 0 0 0-4.71-6.985ZM18 33V15l16 9-16 9Z"/></symbol><symbol viewBox="0 0 48 48" id="plus" xmlns="http://www.w3.org/2000/svg"><path d="m26 8-.001 14H40v4H25.999L26 40h-4l-.001-14H8v-4h13.999L22 8h4Z"/></symbol><symbol viewBox="0 0 48 48" id="presentation" xmlns="http://www.w3.org/2000/svg"><path d="M0 0h48v48H0z" style="fill:none"/><path d="M8 30h32V10H8v20ZM44 6v4h-2v22H26v2l10 12h-4l-8-10-8 10h-4l10-12v-2H6V10H4V6h40ZM20 4V2h8v2h-8Z" style="fill-rule:evenodd"/></symbol><symbol viewBox="0 0 48 48" id="print" xmlns="http://www.w3.org/2000/svg"><path d="M0 0h48v48H0z" style="fill:none"/><path d="M39 22c-1.66 0-3-1.34-3-3s1.34-3 3-3 3 1.34 3 3-1.34 3-3 3Zm7-10v22h-8v12H10V34H2V12h44ZM12 26v16h24V26H12Zm4 6v-2h16v2H16ZM12 6v4h-2V2h28v8h-2V6H12Zm4 32v-2h12v2H16Z" style="fill-rule:evenodd"/></symbol><symbol viewBox="0 0 48 48" id="regulation" xmlns="http://www.w3.org/2000/svg"><path d="M0 0h48v48H0z" style="fill:none"/><path d="m24 2 22 12v2H2v-2c.17-.44 16.96-9.59 22-12Zm-8 18-2 2v16H6V22l-2-2h12Zm26 2 2-2H32l2 2v16h8V22Zm-12-2-2 2v16h-8V22l-2-2h12Zm16 26v-4H2v4h44Z" style="fill-rule:evenodd"/></symbol><symbol viewBox="0 0 48 48" id="rss" xmlns="http://www.w3.org/2000/svg"><path d="M0 0h48v48H0z" style="fill:none"/><path d="M2 10c19.26 0 36 16.52 36 36h8c0-12.04-5.03-22.99-12.92-31.08C25.2 6.82 14.04 2 2 2v8Zm14.67 21.33C12.73 27.39 7.48 26 2 26v-8c7.88 0 15.32 2.39 20.58 7.64C27.83 30.89 30 37.9 30 46h-8c0-5.47-1.39-10.73-5.33-14.67ZM14 40c0 3.31-2.69 6-6 6s-6-2.69-6-6 2.69-6 6-6 6 2.69 6 6Z" style="fill-rule:evenodd"/></symbol><symbol viewBox="0 0 48 48" id="search" xmlns="http://www.w3.org/2000/svg"><path d="M2 20c0-9.941 8.059-18 18-18s18 8.059 18 18c0 3.522-1.012 6.808-2.76 9.583l10.588 10.589-5.656 5.656-10.59-10.588A17.916 17.916 0 0 1 20 38c-9.941 0-18-8.059-18-18ZM19.864 7.127c-7.18 0-13 5.82-13 13s5.82 13 13 13 13-5.82 13-13-5.82-13-13-13Z"/></symbol><symbol viewBox="0 0 48 48" id="share" xmlns="http://www.w3.org/2000/svg"><path d="M36 2a8 8 0 1 1-5.563 13.749L19.73 21.93c.176.66.27 1.353.27 2.069a8.01 8.01 0 0 1-.277 2.096l10.536 6.333a8 8 0 1 1-1.981 3.475L17.74 29.57a8 8 0 1 1 .018-11.124l10.587-6.112A8 8 0 0 1 36 2Z"/></symbol><symbol viewBox="0 0 48 48" id="solid-arrow" xmlns="http://www.w3.org/2000/svg"><path d="m32 30.5-8-13-8 13h16Z" style="fill-rule:evenodd"/></symbol><symbol viewBox="0 0 48 48" id="spinner" xmlns="http://www.w3.org/2000/svg"><path d="m29.133 36.281 2.495 8.497-4.109 1.207-2.495-8.497 4.11-1.207Zm-11.266 0 4.109 1.207-2.495 8.497-4.11-1.207 2.496-8.497Zm16.635-5.061 6.693 5.799-2.805 3.237-6.692-5.8 2.804-3.236Zm-22.004 0 2.804 3.236-6.692 5.8-2.805-3.237 6.693-5.8Zm23.88-7.31 8.766 1.26-.61 4.24-8.765-1.26.61-4.24Zm-25.756 0 .61 4.24-8.766 1.26-.61-4.24 8.766-1.26ZM42.22 12.994 44 16.89l-8.056 3.679-1.779-3.896 8.056-3.679Zm-37.442 0 8.056 3.68-1.78 3.895L3 16.89l1.78-3.896Zm28.575-8.637 3.603 2.315-4.788 7.45-3.603-2.315 4.788-7.45Zm-19.708 0 4.788 7.45-3.603 2.315-4.788-7.45 3.603-2.315ZM25 2v9h-4V2h4Z"/></symbol><symbol viewBox="0 0 48 48" id="spreadsheet" xmlns="http://www.w3.org/2000/svg"><path d="M2 2h44v44H2V2Zm4 24h8v-6H6v6Zm0 8h8v-6H6v6Zm8 8v-6H6v6h8Zm28-6H16v6h26v-6Zm-26-2h26v-6H16v6Zm0-8h26v-6H16v6Zm0-8h26v-8H16v8ZM6 18h8v-8H6v8Z" style="fill-rule:evenodd"/></symbol><symbol viewBox="0 0 48 48" id="star-filled" xmlns="http://www.w3.org/2000/svg"><path d="M24 37.646 38.951 46l-3.32-16.241L46 18.152 31.439 16.48 24 2l-7.439 14.481L2 18.151 12.37 29.76 9.048 46 24 37.646Z"/></symbol><symbol viewBox="0 0 48 48" id="star-outline" xmlns="http://www.w3.org/2000/svg"><path fill-rule="evenodd" d="M24 37.646 38.951 46l-3.32-16.241L46 18.152 31.439 16.48 24 2l-7.439 14.481L2 18.151 12.37 29.76 9.048 46 24 37.646Zm-9.284.605L24 33.063l9.284 5.188-1.974-9.659 6.563-7.346-9.015-1.035L24 10.754l-4.858 9.457-9.015 1.035 6.563 7.346-1.974 9.66Z" clip-rule="evenodd"/></symbol><symbol viewBox="0 0 48 48" id="success" xmlns="http://www.w3.org/2000/svg"><path d="M24 2c12.198 0 22 9.81 22 22s-9.81 22-22 22S2 36.19 2 24 11.81 2 24 2Zm9.25 14-11 10.667-5.5-5.334L14 24l8 8 14-13.333L33.25 16Z"/></symbol><symbol viewBox="0 0 48 48" id="tag" xmlns="http://www.w3.org/2000/svg"><path d="m23 2 23 23-21 21L2 23V2h21Zm-9 7a5 5 0 1 0 0 10 5 5 0 0 0 0-10Z"/></symbol><symbol viewBox="0 0 48 48" id="trash" xmlns="http://www.w3.org/2000/svg"><path fill-rule="evenodd" d="M19 5.971H5V11h39V5.971H30V2H19v3.971ZM41 13H8v33h33V13Zm-8 4h3v25h-3V17Zm-10 0h3v25h-3V17Zm-10 0h3v25h-3V17Z" clip-rule="evenodd"/></symbol><symbol viewBox="0 0 48 48" id="video" xmlns="http://www.w3.org/2000/svg"><path d="m34 38-32-.07V10.07L34 10v10l12-10v28L34 28v10Z" style="fill-rule:evenodd"/></symbol><symbol viewBox="0 0 48 48" id="warning" xmlns="http://www.w3.org/2000/svg"><path d="m24 6 22 36H2L24 6Zm2 28h-4v4h4v-4Zm0-16h-4v12h4V18Z"/></symbol></svg>